# xmcd
#
# Track frame offsets:
#	150
#	12719
#	27011
#	41085
#	55701
#	70109
#	83495
#	97108
#	109612
#	124913
#	140062
#	152513
#	166545
#	181393
#	196416
#	211495
#	225875
#	241221
#	255576
#	268218
#	281822
#	295540
#	309302
#	322561
#	337291
#
# Disc length: 4681 seconds
# Revision: 0
# Processed by: cddbd v1.5.2PL0 Copyright (c) Steve Scherf et al.
# Submitted via: dBpowerAMP V12.0
#
DISCID=59124719
DTITLE=Various Artist - Let Me Tell You About The Blues - Chicago
DYEAR=1925
DGENRE=Blues
TTITLE0=Papa Charlie Jackson - Maxwell Street Blues
TTITLE1=Bo Weavil Jackson - You Can't Keep No Brown
TTITLE2=Leroy Carr - Prison Bound Blues
TTITLE3=Meade Lux Lewis - Honky Tonk Train Blues
TTITLE4=Ma Rainey - Blame It On The Blues
TTITLE5=Blind Blake - Diddie Wa Diddie
TTITLE6=Roosevelt Sykes - ''44'' Blues
TTITLE7=Big Bill Broonzy - I Can't Be Satisfied
TTITLE8=Peetie Wheatstraw - Devil's Son In Law
TTITLE9=Tampa Red - Turpentine Blues
TTITLE10=Pinetop and Lindberg - East Chicago Blues
TTITLE11=Kokomo Arnold - Milk Cow Blues
TTITLE12=Memphis Minnie - Chickasaw Train Blues
TTITLE13=Amos Easton (Bumble Bee Slim) - Sail On, Little Girl, Sail On
TTITLE14=Jimmie Gordon - Bed Springs Blues
TTITLE15=Joe McCoy - Evil Devil Woman Blues
TTITLE16=Big Joe Williams - Baby Please Don't Go
TTITLE17=Sleep John Estes - Drop Down Mama
TTITLE18=Walter Davis - Sweet Sixteen
TTITLE19=Washboard Sam - Who Pumped The Wind In My Doughnut
TTITLE20=Lil Johnson - Sam - The Hot Dog Man
TTITLE21=Jazz Gillum - Sarah Jane
TTITLE22=Georgia White - I'll Keep Sittin' On It
TTITLE23=Casey Bill Weldon - WPA Blues
TTITLE24=Johnny Temple - Louise Louise Blues
EXTD=
EXTT0=
EXTT1=
EXTT2=
EXTT3=
EXTT4=
EXTT5=
EXTT6=
EXTT7=
EXTT8=
EXTT9=
EXTT10=
EXTT11=
EXTT12=
EXTT13=
EXTT14=
EXTT15=
EXTT16=
EXTT17=
EXTT18=
EXTT19=
EXTT20=
EXTT21=
EXTT22=
EXTT23=
EXTT24=
PLAYORDER=
